<?xml version="1.0" encoding="utf-8"?>
<!-- Generator: Adobe Illustrator 26.3.1, SVG Export Plug-In . SVG Version: 6.00 Build 0)  -->
<svg version="1.1" id="图层_1" xmlns="http://www.w3.org/2000/svg" xmlns:xlink="http://www.w3.org/1999/xlink" x="0px" y="0px"
	 viewBox="0 0 463.74 541.7" style="enable-background:new 0 0 463.74 541.7;" xml:space="preserve">
<style type="text/css">
	.st0{fill:#FFFFFF;stroke:#000000;stroke-width:3;stroke-miterlimit:10;}
	.st1{fill:none;stroke:#000000;stroke-width:3;stroke-miterlimit:10;}
	.st2{fill:none;stroke:#000000;stroke-miterlimit:10;}
	.st3{fill:none;stroke:#000000;stroke-width:2;stroke-miterlimit:10;}
</style>
<polygon class="st0" points="88.28,461.29 2.72,461.29 1.51,227.57 87.06,227.57 "/>
<polyline class="st1" points="0.66,227.57 246.14,108.93 334.31,107.6 87.06,227.57 "/>
<line class="st0" x1="324.15" y1="335.98" x2="88.83" y2="461.29"/>
<line class="st0" x1="336.28" y1="107.21" x2="336.28" y2="217.37"/>
<path class="st1" d="M227.7,187.31h-13.44c-38.38,0-69.5,39.4-69.5,88s31.12,88,69.5,88h13.44"/>
<path class="st1" d="M287.93,329.58c-12.66,21.67-32.77,33.55-55.69,33.55c-38.38,0-69.5-39.4-69.5-88s31.12-88,69.5-88
	c22.87,0,41.94,11.96,54.6,33.55"/>
<ellipse class="st1" cx="322.15" cy="275.13" rx="47" ry="60.91"/>
<path class="st1" d="M319.05,214.48h-10c-26.45,0-47.9,27.15-47.9,60.65s21.44,60.65,47.9,60.65h11.1"/>
<ellipse class="st1" cx="320.15" cy="274.95" rx="23.5" ry="29.76"/>
<path class="st2" d="M314.92,245.2c12.98,0,23.5,13.32,23.5,29.76c0,16.43-10.52,29.76-23.5,29.76"/>
<path class="st1" d="M304.28,252.79c9.66,0,17.5,9.92,17.5,22.16c0,12.24-7.84,22.16-17.5,22.16"/>
<path class="st1" d="M233.78,329.58c-23.75,0-43-24.38-43-54.45s19.25-54.45,43-54.45"/>
<line class="st1" x1="232.25" y1="329.58" x2="286.85" y2="329.58"/>
<line class="st1" x1="233.78" y1="220.68" x2="286.85" y2="220.68"/>
<path class="st1" d="M336.28,122.61c7.66-2.55,15.81-3.92,24.27-3.92c44.76,0,81.05,38.5,81.05,86c0,44.99-32.55,81.9-74.03,85.68"
	/>
<path class="st1" d="M336.28,151.66c5.31-1.77,10.96-2.72,16.82-2.72c31.03,0,56.18,26.69,56.18,59.61c0,27-16.92,49.82-40.13,57.14
	"/>
<path class="st1" d="M381.19,281.01"/>
<path class="st1" d="M341.9,121l37.54-6.66c46.78-1.41,82.8,36.19,82.8,83.69s-29.12,82.98-81.05,89.84"/>
<path class="st1" d="M180.86,412.28v2.84c0,6.52,23.52,12.79,50.86,12.79s48.14-5.84,48.14-12.37v-17.77"/>
<path class="st1" d="M269.91,390.67c6.25,1.98,9.96,4.44,9.96,7.1c0,6.52-22.16,11.81-49.5,11.81c-14.71,0-27.92-1.53-36.98-3.96"/>
<path class="st1" d="M180.86,434.21v17.35c0,6.52,23.52,12.79,50.86,12.79s48.14-5.84,48.14-12.37v-17.77"/>
<path class="st1" d="M261.98,425.12c10.92,2.17,17.88,5.43,17.88,9.09c0,6.52-22.16,11.81-49.5,11.81s-49.5-5.29-49.5-11.81
	c0-3.79,7.5-7.17,19.16-9.33"/>
<path class="st1" d="M261.98,425.12c10.92,2.17,17.88,5.43,17.88,9.09c0,6.52-22.16,11.81-49.5,11.81s-49.5-5.29-49.5-11.81
	c0-3.79,7.5-7.17,19.16-9.33"/>
<line class="st1" x1="193.38" y1="423.22" x2="193.38" y2="442.05"/>
<line class="st1" x1="269.28" y1="423.22" x2="269.46" y2="441.45"/>
<line class="st1" x1="269.37" y1="365.23" x2="269.37" y2="405.03"/>
<path class="st1" d="M199.87,461.29v77.3c6.01,1.22,17.43,3.12,32.37,3.11c14.8-0.01,26.11-1.9,32.1-3.11c0-25.77,0-51.53,0-77.3"/>
<path class="st1" d="M336.28,179.48c14.45,4.17,25.07,18.15,25.07,34.74c0,6.97-1.87,13.47-5.11,18.98"/>
<g id="图层_2">
	<line class="st2" x1="285.1" y1="222.6" x2="298.53" y2="222.46"/>
	<line class="st2" x1="280.24" y1="226.68" x2="294.81" y2="226.68"/>
	<line class="st2" x1="277.7" y1="230.9" x2="291.13" y2="230.76"/>
	<line class="st2" x1="272.84" y1="234.98" x2="287.41" y2="234.98"/>
	<line class="st2" x1="270.82" y1="239.19" x2="284.26" y2="239.05"/>
	<line class="st2" x1="267.14" y1="243.27" x2="281.71" y2="243.27"/>
	<line class="st2" x1="266.68" y1="247.46" x2="280.11" y2="247.31"/>
	<line class="st2" x1="264.83" y1="251.57" x2="279.4" y2="251.57"/>
	<line class="st2" x1="289.94" y1="218.96" x2="303.37" y2="218.81"/>
	<line class="st2" x1="293.52" y1="332.55" x2="308.09" y2="332.55"/>
	<line class="st2" x1="264.25" y1="255.82" x2="277.68" y2="255.68"/>
	<line class="st2" x1="261.77" y1="259.9" x2="276.34" y2="259.9"/>
	<line class="st2" x1="262.34" y1="264.11" x2="275.77" y2="263.97"/>
	<line class="st2" x1="261.77" y1="268.19" x2="276.34" y2="268.19"/>
	<line class="st2" x1="260.99" y1="272.49" x2="274.43" y2="272.35"/>
	<line class="st2" x1="262.03" y1="288.85" x2="276.6" y2="288.85"/>
	<line class="st2" x1="260.42" y1="281.08" x2="273.86" y2="280.94"/>
	<line class="st2" x1="264.83" y1="296.85" x2="279.4" y2="296.85"/>
	<line class="st2" x1="266.13" y1="301.1" x2="279.56" y2="300.96"/>
	<line class="st2" x1="267.86" y1="305.33" x2="282.43" y2="305.33"/>
	<line class="st2" x1="269.63" y1="309.86" x2="283.06" y2="309.72"/>
	<line class="st2" x1="271.04" y1="313.58" x2="285.61" y2="313.58"/>
	<line class="st2" x1="260.99" y1="272.49" x2="274.43" y2="272.35"/>
	<line class="st2" x1="259.83" y1="276.57" x2="274.4" y2="276.57"/>
	<line class="st2" x1="261.12" y1="284.94" x2="274.56" y2="284.79"/>
	<line class="st2" x1="262.07" y1="292.7" x2="276.64" y2="292.7"/>
	<line class="st2" x1="275.72" y1="317.52" x2="289.15" y2="317.38"/>
	<line class="st2" x1="277.83" y1="321.58" x2="292.4" y2="321.58"/>
	<line class="st2" x1="281.22" y1="325.65" x2="294.65" y2="325.51"/>
	<line class="st2" x1="284.52" y1="329.08" x2="299.09" y2="329.08"/>
</g>
<g id="图层_3">
	<line class="st2" x1="394.67" y1="126.67" x2="423.8" y2="125.18"/>
	<line class="st2" x1="403.06" y1="131.72" x2="429.68" y2="130.18"/>
	<line class="st2" x1="409.88" y1="136.86" x2="436.1" y2="135.61"/>
	<line class="st2" x1="376.82" y1="119.21" x2="402.74" y2="117"/>
	<line class="st2" x1="388.12" y1="122.91" x2="412.75" y2="120.41"/>
	<line class="st2" x1="416.37" y1="141.91" x2="441.09" y2="140.75"/>
	<line class="st2" x1="419.73" y1="146.96" x2="446.07" y2="145.78"/>
	<line class="st2" x1="424.38" y1="152.01" x2="449.82" y2="151.08"/>
	<line class="st2" x1="428.28" y1="157.15" x2="453.09" y2="156.39"/>
	<line class="st2" x1="431.26" y1="162.21" x2="455.49" y2="161.69"/>
	<line class="st2" x1="432.61" y1="168.11" x2="458.09" y2="166.93"/>
	<line class="st2" x1="435.23" y1="173.62" x2="459.79" y2="172.26"/>
	<line class="st2" x1="437.31" y1="179.18" x2="460.8" y2="177.74"/>
	<line class="st2" x1="439.1" y1="184.23" x2="461.88" y2="182.84"/>
	<line class="st2" x1="440.25" y1="189.41" x2="462.5" y2="188.09"/>
	<line class="st2" x1="440.94" y1="194.53" x2="462.57" y2="193.27"/>
	<line class="st2" x1="441.02" y1="199.4" x2="462.24" y2="198.33"/>
	<line class="st2" x1="442.46" y1="204.79" x2="462.81" y2="204"/>
	<line class="st2" x1="441.59" y1="210.33" x2="462.73" y2="209.38"/>
	<line class="st2" x1="440.96" y1="215.45" x2="461.78" y2="214.69"/>
	<line class="st2" x1="439.84" y1="220.73" x2="460.82" y2="220.08"/>
	<line class="st2" x1="439.12" y1="225.85" x2="458.73" y2="225.44"/>
	<line class="st2" x1="437.68" y1="231.15" x2="455.72" y2="230.32"/>
	<line class="st2" x1="435.7" y1="236.95" x2="455.26" y2="235.87"/>
	<line class="st2" x1="433.38" y1="242.45" x2="451.37" y2="241.35"/>
	<line class="st2" x1="430.14" y1="248.04" x2="448.49" y2="246.92"/>
	<line class="st2" x1="427.29" y1="253.48" x2="444.92" y2="252.44"/>
	<line class="st2" x1="423.51" y1="258.84" x2="439.98" y2="257.88"/>
	<line class="st2" x1="418.79" y1="264.14" x2="435.95" y2="263.27"/>
	<line class="st2" x1="413.34" y1="269.73" x2="430.57" y2="268.05"/>
	<line class="st2" x1="408.49" y1="274.29" x2="425.49" y2="272.5"/>
	<line class="st2" x1="398.15" y1="279.75" x2="415.15" y2="277.95"/>
</g>
<g id="图层_4">
	<line class="st3" x1="226.25" y1="410.62" x2="226" y2="426.65"/>
	<line class="st3" x1="232.41" y1="410.5" x2="232.41" y2="426.78"/>
	<line class="st3" x1="263.05" y1="406.87" x2="263.05" y2="425.19"/>
	<line class="st3" x1="244.77" y1="410.01" x2="244.77" y2="427.26"/>
	<line class="st3" x1="219.32" y1="410.01" x2="219.05" y2="427.26"/>
	<line class="st3" x1="238.57" y1="410.69" x2="238.57" y2="426.97"/>
	<line class="st3" x1="257.26" y1="408.45" x2="257.26" y2="426.78"/>
	<line class="st3" x1="250.98" y1="409.52" x2="250.98" y2="426.78"/>
	<line class="st3" x1="275.37" y1="403.61" x2="275.1" y2="421.17"/>
	<line class="st3" x1="213.06" y1="409.38" x2="213.06" y2="425.66"/>
	<line class="st3" x1="190.09" y1="407.94" x2="190.09" y2="421.55"/>
	<line class="st3" x1="201.49" y1="407.4" x2="201.49" y2="424.66"/>
	<line class="st3" x1="269.3" y1="406.34" x2="269.05" y2="422.37"/>
	<line class="st3" x1="207.22" y1="408.4" x2="207.22" y2="424.67"/>
	<line class="st3" x1="195.76" y1="405.19" x2="195.76" y2="423.52"/>
	<line class="st3" x1="250.98" y1="409.52" x2="250.98" y2="426.78"/>
	<line class="st3" x1="185.34" y1="410.6" x2="185.34" y2="418.89"/>
</g>
<g id="图层_4_x5F_复制">
	<line class="st3" x1="225.39" y1="447.2" x2="225.14" y2="463.23"/>
	<line class="st3" x1="231.5" y1="446.59" x2="231.5" y2="462.86"/>
	<line class="st3" x1="262.19" y1="443.44" x2="262.19" y2="461.77"/>
	<line class="st3" x1="243.91" y1="446.59" x2="243.91" y2="463.84"/>
	<line class="st3" x1="218.44" y1="446.17" x2="218.19" y2="462.2"/>
	<line class="st3" x1="237.71" y1="447.27" x2="237.71" y2="463.54"/>
	<line class="st3" x1="256.4" y1="445.02" x2="256.4" y2="463.35"/>
	<line class="st3" x1="250.12" y1="446.1" x2="250.12" y2="463.35"/>
	<line class="st3" x1="274.51" y1="440.18" x2="274.24" y2="457.74"/>
	<line class="st3" x1="212.19" y1="445.96" x2="212.19" y2="462.23"/>
	<line class="st3" x1="189.23" y1="439.8" x2="189.23" y2="458.12"/>
	<line class="st3" x1="200.63" y1="443.98" x2="200.63" y2="461.23"/>
	<line class="st3" x1="268.44" y1="442.91" x2="268.19" y2="458.94"/>
	<line class="st3" x1="206.36" y1="444.97" x2="206.36" y2="461.25"/>
	<line class="st3" x1="194.9" y1="441.76" x2="194.9" y2="460.09"/>
	<line class="st3" x1="250.12" y1="446.1" x2="250.12" y2="463.35"/>
	<line class="st3" x1="184.51" y1="437.96" x2="184.51" y2="455.21"/>
</g>
</svg>
