<?xml version="1.0" encoding="utf-8"?>
<!-- Generator: Adobe Illustrator 26.3.1, SVG Export Plug-In . SVG Version: 6.00 Build 0)  -->
<svg version="1.1" id="图层_1" xmlns="http://www.w3.org/2000/svg" xmlns:xlink="http://www.w3.org/1999/xlink" x="0px" y="0px"
	 viewBox="0 0 429.34 312.96" style="enable-background:new 0 0 429.34 312.96;" xml:space="preserve">
<style type="text/css">
	.st0{fill:none;stroke:#000000;stroke-width:5;stroke-miterlimit:10;}
	.st1{fill:none;stroke:#000000;stroke-width:5;stroke-miterlimit:10;stroke-dasharray:12;}
</style>
<path class="st0" d="M274.32,151.88c96.71,2.83,152.3,35.26,152.3,71.2c0,39.83-94.94,72.11-212.06,72.11S2.5,262.9,2.5,223.07
	c0-31.71,46.99-64.15,152.66-70.75"/>
<path class="st0" d="M2.5,224.67v13.68c0,39.83,94.94,72.11,212.06,72.11s212.06-32.29,212.06-72.11v-13.68"/>
<polygon class="st0" points="192.69,276.27 154.02,276.77 154.02,139.89 192.69,139.38 "/>
<polyline class="st0" points="274.32,42.04 192.91,137.19 192.91,274.08 "/>
<polyline class="st0" points="154.02,274.08 154.02,137.19 234,41.77 "/>
<line class="st0" x1="232.22" y1="42.73" x2="275.1" y2="42.73"/>
<line class="st0" x1="192.91" y1="277.61" x2="275.1" y2="170.73"/>
<line class="st0" x1="274.58" y1="40.24" x2="274.58" y2="172.3"/>
<path class="st1" d="M153.51,152.32c15.13-0.58,32.95-1.54,61.15-1.54c31.63,0,58.82,0.98,73.8,1.54"/>
</svg>
