<svg xmlns="http://www.w3.org/2000/svg" width="525" height="946" viewBox="0 0 525 946">
  <defs>
    <style>
      .cls-1, .cls-2 {
        fill: none;
        stroke: #000;
        stroke-width: 3px;
        fill-rule: evenodd;
      }

      .cls-1 {
        stroke-linecap: round;
        stroke-linejoin: round;
      }
    </style>
  </defs>
  <path id="形状_1" data-name="形状 1" class="cls-1" d="M264,2C134.992,2,27.2,133.492,16,250,1.481,401.092,156.919,455.586,155,613c-0.363,29.743-5.843,74.5,22,98,14.7,12.41,158.3,13.59,177-6,21.788-22.823,14.161-59.528,12-84C352.5,468.087,523.371,403.038,512,250,503.345,133.523,393.025,2,264,2Z"/>
  <path id="形状_3" data-name="形状 3" class="cls-1" d="M171,374c68.613,19.637,140.8,14.734,203-6,10.5-3.5,20.8-7.488,31-12,11.59-7.178,19.979-16.638,23-28,8.619-32.417-27.855-73.55-61-72-7.967.372-23.195,6.143-37.986,22.768A110.668,110.668,0,0,0,304,328c-12.638,55.655-16.816,250.39-16,390a209.208,209.208,0,0,1-50,1c-2.428-130.758-7.949-350.919-8-391-0.008-6.19-.166-30.154-15.016-49.543C207.873,269.173,194.879,257.436,178,256c-35.068-2.985-72.828,37.229-66,72,2.738,13.94,12.405,25.533,25,34A295.866,295.866,0,0,0,171,374Z"/>
  <path id="形状_2" data-name="形状 2" class="cls-2" d="M175,728c-49.1,70.847-33.192,158.517,20,196,37.989,26.769,93.76,27.149,132,1,53.836-36.814,70.925-124.973,22-197H175Z"/>
</svg>
