<svg xmlns="http://www.w3.org/2000/svg" width="1030" height="2409" viewBox="0 0 1030 2409">
  <defs>
    <style>
      .cls-1 {
        fill: none;
        stroke: #000;
        stroke-width: 10px;
        fill-rule: evenodd;
      }
    </style>
  </defs>
  <path id="形状_4" data-name="形状 4" class="cls-1" d="M445,1966s-1-575.69-1-744.88M327.622,1355.87c96.59-.19,273.516-0.53,374.474-0.72M583,1142m0.148,92.99C582.426,1414.24,582,1966,582,1966"/>
  <path id="椭圆_3" data-name="椭圆 3" class="cls-1" d="M336,1366c-67.379,0-122-57.43-122-129.5S268.621,1106,336,1106c63.639,0,118.188,53.25,118,120"/>
  <path id="椭圆_3_拷贝" data-name="椭圆 3 拷贝" class="cls-1" d="M573,1240c0-72.07,53.621-135,121-135s122,58.43,122,130.5S761.379,1365,694,1365"/>
  <path id="椭圆_2" data-name="椭圆 2" class="cls-1" d="M352,1975c-45.908-88.44-1.576-193.68-61-334-73.207-172.86-217-268.89-247-447C-8.929,879.758,255.322,617,516,617s533.25,264.273,472,577c-44.091,225.12-191.089,275.54-263.54,441.87C667.86,1765.82,705.207,1875.7,665,1976"/>
  <path id="形状_2" data-name="形状 2" class="cls-1" d="M352,1976v-10H665v10H352Z"/>
  <path id="椭圆_1" data-name="椭圆 1" class="cls-1" d="M700,1995c28.011,43.13,46,95.9,46,153.5,0,143.87-103.2,260.5-230.5,260.5S285,2292.37,285,2148.5c0-54.6,19.593-110.63,45-152.5"/>
  <path id="形状_1" data-name="形状 1" class="cls-1" d="M331,2005v-10H701v10H331Z"/>
</svg>
