<?xml version="1.0" encoding="utf-8"?>
<!-- Generator: Adobe Illustrator 26.3.1, SVG Export Plug-In . SVG Version: 6.00 Build 0)  -->
<svg version="1.1" id="图层_1" xmlns="http://www.w3.org/2000/svg" xmlns:xlink="http://www.w3.org/1999/xlink" x="0px" y="0px"
	 viewBox="0 0 463.74 541.7" style="enable-background:new 0 0 463.74 541.7;" xml:space="preserve">
<style type="text/css">
	.st0{fill:#FFFFFF;stroke:#000000;stroke-width:3;stroke-miterlimit:10;}
	.st1{fill:none;stroke:#000000;stroke-width:3;stroke-miterlimit:10;}
	.st2{fill:none;stroke:#000000;stroke-width:3;stroke-miterlimit:10;stroke-dasharray:12.8699,12.8699;}
</style>
<polygon class="st0" points="88.28,459.29 2.72,459.29 1.51,225.57 87.06,225.57 "/>
<polyline class="st1" points="0.66,225.57 246.14,106.93 334.31,105.6 87.06,225.57 "/>
<line class="st0" x1="324.15" y1="333.98" x2="88.83" y2="459.29"/>
<line class="st0" x1="336.28" y1="105.21" x2="336.28" y2="215.37"/>
<path class="st1" d="M227.7,185.31h-13.44c-38.38,0-69.5,39.4-69.5,88s31.12,88,69.5,88h13.44"/>
<path class="st1" d="M287.93,327.58c-12.66,21.67-32.77,33.55-55.69,33.55c-38.38,0-69.5-39.4-69.5-88s31.12-88,69.5-88
	c22.87,0,41.94,11.96,54.6,33.55"/>
<ellipse class="st1" cx="322.15" cy="273.13" rx="47" ry="60.91"/>
<path class="st1" d="M319.05,212.48h-10c-26.45,0-47.9,27.15-47.9,60.65s21.44,60.65,47.9,60.65h11.1"/>
<ellipse class="st1" cx="320.15" cy="272.95" rx="23.5" ry="29.76"/>
<path class="st1" d="M304.28,250.79c9.66,0,17.5,9.92,17.5,22.16c0,12.24-7.84,22.16-17.5,22.16"/>
<path class="st1" d="M233.78,327.58c-23.75,0-43-24.38-43-54.45s19.25-54.45,43-54.45"/>
<g>
	<g>
		<path class="st1" d="M233.78,218.68c2.02,0,4.02,0.18,5.97,0.52"/>
		<path class="st2" d="M251.75,223.65c14.77,8.62,25.03,27.53,25.03,49.48c0,24.71-13,45.58-30.81,52.23"/>
		<path class="st1" d="M239.74,327.06c-1.95,0.34-3.94,0.52-5.97,0.52"/>
	</g>
</g>
<line class="st1" x1="232.25" y1="327.58" x2="286.85" y2="327.58"/>
<line class="st1" x1="235.46" y1="218.68" x2="286.85" y2="218.68"/>
<path class="st1" d="M336.28,120.61c7.66-2.55,15.81-3.92,24.27-3.92c44.76,0,81.05,38.5,81.05,86c0,44.99-32.55,81.9-74.03,85.68"
	/>
<path class="st1" d="M336.28,149.66c5.31-1.77,10.96-2.72,16.82-2.72c31.03,0,56.18,26.69,56.18,59.61c0,27-16.92,49.82-40.13,57.14
	"/>
<path class="st1" d="M381.19,279.01"/>
<path class="st1" d="M341.9,119l37.54-6.66c46.78-1.41,82.8,36.19,82.8,83.69s-29.12,82.98-81.05,89.84"/>
<path class="st1" d="M180.86,410.28v2.84c0,6.52,23.52,12.79,50.86,12.79s48.14-5.84,48.14-12.37v-17.77"/>
<path class="st1" d="M269.91,388.67c6.25,1.98,9.96,4.44,9.96,7.1c0,6.52-22.16,11.81-49.5,11.81c-14.71,0-27.92-1.53-36.98-3.96"/>
<path class="st1" d="M180.86,432.21v17.35c0,6.52,23.52,12.79,50.86,12.79s48.14-5.84,48.14-12.37v-17.77"/>
<path class="st1" d="M261.98,423.12c10.92,2.17,17.88,5.43,17.88,9.09c0,6.52-22.16,11.81-49.5,11.81s-49.5-5.29-49.5-11.81
	c0-3.79,7.5-7.17,19.16-9.33"/>
<path class="st1" d="M261.98,423.12c10.92,2.17,17.88,5.43,17.88,9.09c0,6.52-22.16,11.81-49.5,11.81s-49.5-5.29-49.5-11.81
	c0-3.79,7.5-7.17,19.16-9.33"/>
<line class="st1" x1="193.38" y1="421.22" x2="193.38" y2="440.05"/>
<line class="st1" x1="269.28" y1="421.22" x2="269.46" y2="439.45"/>
<line class="st1" x1="269.37" y1="363.23" x2="269.37" y2="403.03"/>
<path class="st1" d="M199.87,459.29v79.22c6.01,1.25,17.43,3.2,32.37,3.19c14.8-0.01,26.11-1.94,32.1-3.19c0-26.41,0-52.81,0-79.22"
	/>
<path class="st1" d="M336.28,177.48c14.45,4.17,25.07,18.15,25.07,34.74c0,6.97-1.87,13.47-5.11,18.98"/>
</svg>
