<svg id="组_2" data-name="组 2" xmlns="http://www.w3.org/2000/svg" width="237" height="265" viewBox="0 0 237 265">
  <defs>
    <style>
      .cls-1, .cls-2, .cls-3 {
        fill: none;
        stroke: #000;
      }

      .cls-1, .cls-2 {
        stroke-width: 3px;
      }

      .cls-1, .cls-3 {
        fill-rule: evenodd;
      }

      .cls-3 {
        stroke-width: 2px;
      }
    </style>
  </defs>
  <path id="形状_4" data-name="形状 4" class="cls-1" d="M21,118L156,2V149L21,264V118Z"/>
  <path id="形状_5" data-name="形状 5" class="cls-1" d="M22,263H1V117L136,1"/>
  <path id="形状_5_拷贝" data-name="形状 5 拷贝" class="cls-1" d="M136,1h20"/>
  <path id="形状_5_拷贝_3" data-name="形状 5 拷贝 3" class="cls-1" d="M4,115H23"/>
  <path id="形状_9" data-name="形状 9" class="cls-1" d="M23,159L154,47"/>
  <path id="形状_10" data-name="形状 10" class="cls-1" d="M46,125v34l85-74V52Z"/>
  <path id="椭圆_1" data-name="椭圆 1" class="cls-1" d="M217.5,103c9.009-.012,17.418,17.54,17.5,32.5,0.086,15.641-8.908,33.648-18,33.5-9.031-.147-17.228-18.195-17-33.5C200.222,120.622,208.481,103.012,217.5,103Z"/>
  <ellipse id="椭圆_2" data-name="椭圆 2" class="cls-2" cx="218" cy="136" rx="7" ry="16"/>
  <path id="形状_12" data-name="形状 12" class="cls-3" d="M217,105H117"/>
  <path id="形状_12_拷贝" data-name="形状 12 拷贝" class="cls-3" d="M217,169H117"/>
  <path id="形状_11" data-name="形状 11" class="cls-1" d="M118.5,105a39.737,39.737,0,0,0,.5,62"/>
</svg>
