<?xml version="1.0" encoding="utf-8"?>
<!-- Generator: Adobe Illustrator 26.3.1, SVG Export Plug-In . SVG Version: 6.00 Build 0)  -->
<svg version="1.1" id="图层_1" xmlns="http://www.w3.org/2000/svg" xmlns:xlink="http://www.w3.org/1999/xlink" x="0px" y="0px"
	 viewBox="0 0 420.97 494.62" style="enable-background:new 0 0 420.97 494.62;" xml:space="preserve">
<style type="text/css">
	.st0{fill:none;stroke:#000000;stroke-width:3;stroke-miterlimit:10;}
	.st1{fill:none;stroke:#000000;stroke-miterlimit:10;}
	.st2{fill:none;}
	.st3{fill:none;stroke:#000000;stroke-width:2;stroke-miterlimit:10;}
</style>
<ellipse class="st0" cx="241.14" cy="247.31" rx="178.33" ry="245.81"/>
<path class="st1" d="M410.14,247.31c0,128.65-73.35,237.47-166.69,237.47S72.14,375.96,72.14,247.31s75.66-236.01,169-236.01
	S410.14,118.66,410.14,247.31z"/>
<path class="st0" d="M243.45,1.5h-63.62C81.34,1.5,1.5,111.55,1.5,247.31s79.84,245.81,178.33,245.81h61.31"/>
<ellipse class="st0" cx="241.14" cy="248.04" rx="120.16" ry="171.44"/>
<path id="SVGID_x5F_1_x5F_" class="st2" d="M375.72,248.04c0,106.04-60.25,192-134.57,192c-74.32,0-134.57-85.96-134.57-192
	s60.25-192,134.57-192C315.47,56.04,375.72,142,375.72,248.04z"/>
<text><textPath  xlink:href="#SVGID_x5F_1_x5F_" startOffset="2893.8848%">
<tspan  style="font-family:'AdobeSongStd-Light-GBpc-EUC-H'; font-size:27.5598px; letter-spacing:-13;">    </tspan><tspan  style="font-family:'AdobeSongStd-Light-GBpc-EUC-H'; font-size:27.5598px; letter-spacing:-13;">  </tspan><tspan  style="font-family:'AdobeSongStd-Light-GBpc-EUC-H'; font-size:20px; letter-spacing:-13;">330                300              270                240                 210                 180                150                120                  90                 60                 30                      0</tspan><tspan  style="font-family:'AdobeSongStd-Light-GBpc-EUC-H'; font-size:27.5598px; letter-spacing:-13;">      </tspan><tspan  style="font-family:'AdobeSongStd-Light-GBpc-EUC-H'; font-size:27.5598px; letter-spacing:-13;">                 </tspan></textPath>
</text>
<ellipse class="st0" cx="241.14" cy="248.04" rx="101.5" ry="144.82"/>
<path class="st0" d="M172.95,141.24c41.06,0,74.34,47.49,74.34,106.06s-33.28,106.06-74.34,106.06"/>
<line class="st3" x1="243.45" y1="11.3" x2="243.45" y2="30.85"/>
<line class="st3" x1="348.64" y1="65.73" x2="338.69" y2="76.6"/>
<line class="st3" x1="393.01" y1="144.4" x2="380.03" y2="149.31"/>
<line class="st3" x1="410.1" y1="242.04" x2="399.03" y2="242.62"/>
<line class="st3" x1="395.3" y1="344.94" x2="381.71" y2="339.85"/>
<line class="st3" x1="342.65" y1="438.03" x2="330.3" y2="426.46"/>
<line class="st3" x1="243.45" y1="484.78" x2="243.45" y2="465.01"/>
<line class="st3" x1="139.64" y1="434.87" x2="149.27" y2="423.66"/>
<line class="st3" x1="87.9" y1="345.22" x2="100.65" y2="339.29"/>
<line class="st3" x1="72.17" y1="251.01" x2="85.57" y2="251.01"/>
<line class="st3" x1="85.12" y1="157.17" x2="99.54" y2="161.04"/>
<line class="st3" x1="142.6" y1="56.04" x2="152.06" y2="68.85"/>
</svg>
